<mxfile host="app.diagrams.net" modified="2021-10-10T15:32:35.580Z" agent="5.0 (Macintosh; Intel Mac OS X 10_15_7) AppleWebKit/537.36 (KHTML, like Gecko) Chrome/94.0.4606.81 Safari/537.36" etag="U1E6fZCDiEYHLrpoDEKV" version="15.5.0" type="github">
  <diagram id="9WIEA_USxD3bGntZU9fi" name="innodb-memory-management">
    <mxGraphModel dx="837" dy="493" grid="1" gridSize="10" guides="1" tooltips="1" connect="1" arrows="1" fold="1" page="1" pageScale="1" pageWidth="850" pageHeight="1100" math="0" shadow="0">
      <root>
        <mxCell id="0" />
        <mxCell id="1" parent="0" />
        <mxCell id="D5N4CXHXUzBSK73f73w--1" value="&lt;font style=&quot;font-size: 15px&quot;&gt;Disk File&lt;/font&gt;" style="rounded=0;whiteSpace=wrap;html=1;fillColor=#FF3333;" vertex="1" parent="1">
          <mxGeometry x="320" y="80" width="440" height="80" as="geometry" />
        </mxCell>
        <mxCell id="D5N4CXHXUzBSK73f73w--2" value="Clean Page" style="rounded=0;whiteSpace=wrap;html=1;fillColor=#FFB570;" vertex="1" parent="1">
          <mxGeometry x="80" y="320" width="80" height="40" as="geometry" />
        </mxCell>
        <mxCell id="D5N4CXHXUzBSK73f73w--3" value="&lt;font style=&quot;font-size: 14px&quot; color=&quot;#ffffff&quot;&gt;page hash&lt;/font&gt;" style="rounded=0;whiteSpace=wrap;html=1;fillColor=#2341D9;" vertex="1" parent="1">
          <mxGeometry x="440" y="220" width="200" height="40" as="geometry" />
        </mxCell>
        <mxCell id="D5N4CXHXUzBSK73f73w--4" value="" style="rounded=0;whiteSpace=wrap;html=1;fillColor=#FF66FF;" vertex="1" parent="1">
          <mxGeometry x="720" y="480" width="80" height="40" as="geometry" />
        </mxCell>
        <mxCell id="D5N4CXHXUzBSK73f73w--5" value="" style="rounded=0;whiteSpace=wrap;html=1;fillColor=#999999;" vertex="1" parent="1">
          <mxGeometry x="260" y="480" width="80" height="40" as="geometry" />
        </mxCell>
        <mxCell id="D5N4CXHXUzBSK73f73w--6" value="" style="rounded=0;whiteSpace=wrap;html=1;fillColor=#66CC00;" vertex="1" parent="1">
          <mxGeometry x="480" y="480" width="80" height="40" as="geometry" />
        </mxCell>
        <mxCell id="D5N4CXHXUzBSK73f73w--7" value="Dirty Page" style="rounded=0;whiteSpace=wrap;html=1;fillColor=#97D077;" vertex="1" parent="1">
          <mxGeometry x="160" y="320" width="80" height="40" as="geometry" />
        </mxCell>
        <mxCell id="D5N4CXHXUzBSK73f73w--8" value="Clean Page" style="rounded=0;whiteSpace=wrap;html=1;fillColor=#FFB570;" vertex="1" parent="1">
          <mxGeometry x="400" y="320" width="80" height="40" as="geometry" />
        </mxCell>
        <mxCell id="D5N4CXHXUzBSK73f73w--9" value="Free Page" style="rounded=0;whiteSpace=wrap;html=1;fillColor=#E6E6E6;" vertex="1" parent="1">
          <mxGeometry x="240" y="320" width="80" height="40" as="geometry" />
        </mxCell>
        <mxCell id="D5N4CXHXUzBSK73f73w--10" value="Clean Page" style="rounded=0;whiteSpace=wrap;html=1;fillColor=#FFB570;" vertex="1" parent="1">
          <mxGeometry x="320" y="320" width="80" height="40" as="geometry" />
        </mxCell>
        <mxCell id="D5N4CXHXUzBSK73f73w--11" value="Dirty Page" style="rounded=0;whiteSpace=wrap;html=1;fillColor=#97D077;" vertex="1" parent="1">
          <mxGeometry x="600" y="320" width="80" height="40" as="geometry" />
        </mxCell>
        <mxCell id="D5N4CXHXUzBSK73f73w--12" value="Free Page" style="rounded=0;whiteSpace=wrap;html=1;fillColor=#E6E6E6;" vertex="1" parent="1">
          <mxGeometry x="680" y="320" width="80" height="40" as="geometry" />
        </mxCell>
        <mxCell id="D5N4CXHXUzBSK73f73w--13" value="Clean Page" style="rounded=0;whiteSpace=wrap;html=1;fillColor=#FFB570;" vertex="1" parent="1">
          <mxGeometry x="920" y="320" width="80" height="40" as="geometry" />
        </mxCell>
        <mxCell id="D5N4CXHXUzBSK73f73w--14" value="Dirty Page" style="rounded=0;whiteSpace=wrap;html=1;fillColor=#97D077;" vertex="1" parent="1">
          <mxGeometry x="760" y="320" width="80" height="40" as="geometry" />
        </mxCell>
        <mxCell id="D5N4CXHXUzBSK73f73w--15" value="Free Page" style="rounded=0;whiteSpace=wrap;html=1;fillColor=#E6E6E6;" vertex="1" parent="1">
          <mxGeometry x="840" y="320" width="80" height="40" as="geometry" />
        </mxCell>
        <mxCell id="D5N4CXHXUzBSK73f73w--16" value="" style="shape=flexArrow;endArrow=classic;html=1;rounded=0;fontSize=14;fontColor=#FFFFFF;startArrow=block;entryX=0.5;entryY=1;entryDx=0;entryDy=0;fillColor=#33FF33;" edge="1" parent="1" target="D5N4CXHXUzBSK73f73w--1">
          <mxGeometry width="50" height="50" relative="1" as="geometry">
            <mxPoint x="540" y="220" as="sourcePoint" />
            <mxPoint x="590" y="170" as="targetPoint" />
          </mxGeometry>
        </mxCell>
        <mxCell id="D5N4CXHXUzBSK73f73w--17" value="" style="endArrow=none;html=1;rounded=0;fontSize=14;fontColor=#FFFFFF;strokeColor=#000000;fillColor=#33FF33;entryX=0;entryY=0;entryDx=0;entryDy=0;exitX=0;exitY=1;exitDx=0;exitDy=0;strokeWidth=2;endFill=0;" edge="1" parent="1" source="D5N4CXHXUzBSK73f73w--3" target="D5N4CXHXUzBSK73f73w--2">
          <mxGeometry width="50" height="50" relative="1" as="geometry">
            <mxPoint x="70" y="270" as="sourcePoint" />
            <mxPoint x="120" y="220" as="targetPoint" />
          </mxGeometry>
        </mxCell>
        <mxCell id="D5N4CXHXUzBSK73f73w--18" value="" style="endArrow=none;html=1;rounded=0;fontSize=14;fontColor=#FFFFFF;strokeColor=#000000;fillColor=#33FF33;entryX=1;entryY=0;entryDx=0;entryDy=0;exitX=0;exitY=1;exitDx=0;exitDy=0;strokeWidth=2;endFill=0;shadow=0;" edge="1" parent="1" target="D5N4CXHXUzBSK73f73w--13">
          <mxGeometry width="50" height="50" relative="1" as="geometry">
            <mxPoint x="640" y="260" as="sourcePoint" />
            <mxPoint x="280" y="320" as="targetPoint" />
          </mxGeometry>
        </mxCell>
        <mxCell id="D5N4CXHXUzBSK73f73w--19" value="Free List" style="rounded=0;whiteSpace=wrap;html=1;fillColor=#999999;" vertex="1" parent="1">
          <mxGeometry x="260" y="640" width="80" height="40" as="geometry" />
        </mxCell>
        <mxCell id="D5N4CXHXUzBSK73f73w--20" value="" style="rounded=0;whiteSpace=wrap;html=1;fillColor=#999999;" vertex="1" parent="1">
          <mxGeometry x="260" y="560" width="80" height="40" as="geometry" />
        </mxCell>
        <mxCell id="D5N4CXHXUzBSK73f73w--21" value="" style="endArrow=classic;html=1;rounded=0;fontSize=14;fontColor=#FFFFFF;strokeColor=#000000;strokeWidth=2;fillColor=#33FF33;exitX=0.5;exitY=0;exitDx=0;exitDy=0;entryX=0.5;entryY=1;entryDx=0;entryDy=0;" edge="1" parent="1" source="D5N4CXHXUzBSK73f73w--20" target="D5N4CXHXUzBSK73f73w--5">
          <mxGeometry width="50" height="50" relative="1" as="geometry">
            <mxPoint x="480" y="550" as="sourcePoint" />
            <mxPoint x="530" y="500" as="targetPoint" />
          </mxGeometry>
        </mxCell>
        <mxCell id="D5N4CXHXUzBSK73f73w--22" value="" style="endArrow=classic;html=1;rounded=0;fontSize=14;fontColor=#FFFFFF;strokeColor=#000000;strokeWidth=2;fillColor=#33FF33;exitX=0.5;exitY=0;exitDx=0;exitDy=0;entryX=0.5;entryY=1;entryDx=0;entryDy=0;" edge="1" parent="1">
          <mxGeometry width="50" height="50" relative="1" as="geometry">
            <mxPoint x="300" y="640" as="sourcePoint" />
            <mxPoint x="300" y="600" as="targetPoint" />
          </mxGeometry>
        </mxCell>
        <mxCell id="D5N4CXHXUzBSK73f73w--23" value="Flush List" style="rounded=0;whiteSpace=wrap;html=1;fillColor=#66CC00;" vertex="1" parent="1">
          <mxGeometry x="480" y="640" width="80" height="40" as="geometry" />
        </mxCell>
        <mxCell id="D5N4CXHXUzBSK73f73w--24" value="" style="rounded=0;whiteSpace=wrap;html=1;fillColor=#66CC00;" vertex="1" parent="1">
          <mxGeometry x="480" y="560" width="80" height="40" as="geometry" />
        </mxCell>
        <mxCell id="D5N4CXHXUzBSK73f73w--25" value="" style="endArrow=classic;html=1;rounded=0;fontSize=14;fontColor=#FFFFFF;strokeColor=#000000;strokeWidth=2;fillColor=#33FF33;exitX=0.5;exitY=0;exitDx=0;exitDy=0;entryX=0.5;entryY=1;entryDx=0;entryDy=0;" edge="1" parent="1">
          <mxGeometry width="50" height="50" relative="1" as="geometry">
            <mxPoint x="519" y="560" as="sourcePoint" />
            <mxPoint x="519" y="520" as="targetPoint" />
          </mxGeometry>
        </mxCell>
        <mxCell id="D5N4CXHXUzBSK73f73w--26" value="" style="endArrow=classic;html=1;rounded=0;fontSize=14;fontColor=#FFFFFF;strokeColor=#000000;strokeWidth=2;fillColor=#33FF33;exitX=0.5;exitY=0;exitDx=0;exitDy=0;entryX=0.5;entryY=1;entryDx=0;entryDy=0;" edge="1" parent="1">
          <mxGeometry width="50" height="50" relative="1" as="geometry">
            <mxPoint x="520" y="640" as="sourcePoint" />
            <mxPoint x="520" y="600" as="targetPoint" />
          </mxGeometry>
        </mxCell>
        <mxCell id="D5N4CXHXUzBSK73f73w--27" value="LRU List" style="rounded=0;whiteSpace=wrap;html=1;fillColor=#FF66FF;" vertex="1" parent="1">
          <mxGeometry x="720" y="760" width="80" height="40" as="geometry" />
        </mxCell>
        <mxCell id="D5N4CXHXUzBSK73f73w--28" value="" style="rounded=0;whiteSpace=wrap;html=1;fillColor=#FF66FF;" vertex="1" parent="1">
          <mxGeometry x="720" y="680" width="80" height="40" as="geometry" />
        </mxCell>
        <mxCell id="D5N4CXHXUzBSK73f73w--29" value="" style="rounded=0;whiteSpace=wrap;html=1;fillColor=#FF66FF;" vertex="1" parent="1">
          <mxGeometry x="720" y="560" width="80" height="40" as="geometry" />
        </mxCell>
        <mxCell id="D5N4CXHXUzBSK73f73w--30" value="" style="endArrow=classic;html=1;rounded=0;fontSize=14;fontColor=#FFFFFF;strokeColor=#000000;strokeWidth=2;fillColor=#33FF33;exitX=0.5;exitY=0;exitDx=0;exitDy=0;entryX=0.5;entryY=1;entryDx=0;entryDy=0;" edge="1" parent="1">
          <mxGeometry width="50" height="50" relative="1" as="geometry">
            <mxPoint x="760" y="560" as="sourcePoint" />
            <mxPoint x="760" y="520" as="targetPoint" />
          </mxGeometry>
        </mxCell>
        <mxCell id="D5N4CXHXUzBSK73f73w--31" value="" style="endArrow=classic;html=1;rounded=0;fontSize=14;fontColor=#FFFFFF;strokeColor=#000000;strokeWidth=2;fillColor=#33FF33;entryX=0.5;entryY=1;entryDx=0;entryDy=0;" edge="1" parent="1">
          <mxGeometry width="50" height="50" relative="1" as="geometry">
            <mxPoint x="760" y="630" as="sourcePoint" />
            <mxPoint x="760" y="600" as="targetPoint" />
          </mxGeometry>
        </mxCell>
        <mxCell id="D5N4CXHXUzBSK73f73w--32" value="" style="endArrow=classic;html=1;rounded=0;fontSize=14;fontColor=#FFFFFF;strokeColor=#000000;strokeWidth=2;fillColor=#33FF33;exitX=0.5;exitY=0;exitDx=0;exitDy=0;entryX=0.5;entryY=1;entryDx=0;entryDy=0;" edge="1" parent="1">
          <mxGeometry width="50" height="50" relative="1" as="geometry">
            <mxPoint x="760" y="760" as="sourcePoint" />
            <mxPoint x="760" y="720" as="targetPoint" />
          </mxGeometry>
        </mxCell>
        <mxCell id="D5N4CXHXUzBSK73f73w--33" value="" style="curved=1;endArrow=classic;html=1;rounded=0;fontSize=14;fontColor=#FFFFFF;strokeColor=#FF66FF;strokeWidth=2;fillColor=#33FF33;entryX=0.5;entryY=1;entryDx=0;entryDy=0;exitX=0;exitY=0.5;exitDx=0;exitDy=0;" edge="1" parent="1" source="D5N4CXHXUzBSK73f73w--28" target="D5N4CXHXUzBSK73f73w--10">
          <mxGeometry width="50" height="50" relative="1" as="geometry">
            <mxPoint x="680" y="790" as="sourcePoint" />
            <mxPoint x="690" y="650" as="targetPoint" />
            <Array as="points">
              <mxPoint x="650" y="700" />
              <mxPoint x="630" y="450" />
              <mxPoint x="490" y="410" />
            </Array>
          </mxGeometry>
        </mxCell>
        <mxCell id="D5N4CXHXUzBSK73f73w--34" value="" style="endArrow=classic;html=1;rounded=0;fontSize=14;fontColor=#FFFFFF;strokeColor=#999999;strokeWidth=2;fillColor=#33FF33;entryX=0.5;entryY=1;entryDx=0;entryDy=0;edgeStyle=orthogonalEdgeStyle;elbow=vertical;curved=1;exitX=1;exitY=0.5;exitDx=0;exitDy=0;" edge="1" parent="1" source="D5N4CXHXUzBSK73f73w--5" target="D5N4CXHXUzBSK73f73w--9">
          <mxGeometry width="50" height="50" relative="1" as="geometry">
            <mxPoint x="360" y="500" as="sourcePoint" />
            <mxPoint x="410" y="450" as="targetPoint" />
            <Array as="points">
              <mxPoint x="370" y="500" />
              <mxPoint x="370" y="420" />
              <mxPoint x="280" y="420" />
            </Array>
          </mxGeometry>
        </mxCell>
        <mxCell id="D5N4CXHXUzBSK73f73w--35" value="" style="curved=1;endArrow=classic;html=1;rounded=0;fontSize=14;fontColor=#FFFFFF;strokeColor=#999999;strokeWidth=2;fillColor=#33FF33;entryX=0.5;entryY=1;entryDx=0;entryDy=0;exitX=1;exitY=0.5;exitDx=0;exitDy=0;" edge="1" parent="1" source="D5N4CXHXUzBSK73f73w--19" target="D5N4CXHXUzBSK73f73w--15">
          <mxGeometry width="50" height="50" relative="1" as="geometry">
            <mxPoint x="360" y="660" as="sourcePoint" />
            <mxPoint x="410" y="610" as="targetPoint" />
            <Array as="points">
              <mxPoint x="400" y="640" />
              <mxPoint x="410" y="510" />
              <mxPoint x="440" y="410" />
              <mxPoint x="610" y="440" />
              <mxPoint x="770" y="450" />
            </Array>
          </mxGeometry>
        </mxCell>
        <mxCell id="D5N4CXHXUzBSK73f73w--36" value="" style="curved=1;endArrow=classic;html=1;rounded=0;fontSize=14;fontColor=#FFFFFF;strokeColor=#999999;strokeWidth=2;fillColor=#33FF33;entryX=0.5;entryY=1;entryDx=0;entryDy=0;exitX=1;exitY=0.5;exitDx=0;exitDy=0;" edge="1" parent="1" source="D5N4CXHXUzBSK73f73w--20" target="D5N4CXHXUzBSK73f73w--12">
          <mxGeometry width="50" height="50" relative="1" as="geometry">
            <mxPoint x="360" y="580" as="sourcePoint" />
            <mxPoint x="410" y="530" as="targetPoint" />
            <Array as="points">
              <mxPoint x="390" y="580" />
              <mxPoint x="400" y="380" />
              <mxPoint x="660" y="420" />
            </Array>
          </mxGeometry>
        </mxCell>
        <mxCell id="D5N4CXHXUzBSK73f73w--37" value="" style="curved=1;endArrow=classic;html=1;rounded=0;fontSize=14;fontColor=#FFFFFF;strokeColor=#66CC00;strokeWidth=2;fillColor=#33FF33;entryX=0.5;entryY=1;entryDx=0;entryDy=0;exitX=0;exitY=0.5;exitDx=0;exitDy=0;" edge="1" parent="1" source="D5N4CXHXUzBSK73f73w--23" target="D5N4CXHXUzBSK73f73w--7">
          <mxGeometry width="50" height="50" relative="1" as="geometry">
            <mxPoint x="440" y="660" as="sourcePoint" />
            <mxPoint x="490" y="610" as="targetPoint" />
            <Array as="points">
              <mxPoint x="440" y="640" />
              <mxPoint x="440" y="480" />
              <mxPoint x="280" y="450" />
            </Array>
          </mxGeometry>
        </mxCell>
        <mxCell id="D5N4CXHXUzBSK73f73w--38" value="" style="endArrow=classic;html=1;fontSize=14;fontColor=#FFFFFF;strokeColor=#66CC00;strokeWidth=2;fillColor=#33FF33;entryX=0.5;entryY=1;entryDx=0;entryDy=0;exitX=1;exitY=0.5;exitDx=0;exitDy=0;curved=1;sketch=0;" edge="1" parent="1" source="D5N4CXHXUzBSK73f73w--24" target="D5N4CXHXUzBSK73f73w--14">
          <mxGeometry width="50" height="50" relative="1" as="geometry">
            <mxPoint x="520" y="580" as="sourcePoint" />
            <mxPoint x="570" y="530" as="targetPoint" />
            <Array as="points">
              <mxPoint x="600" y="580" />
              <mxPoint x="650" y="550" />
              <mxPoint x="690" y="500" />
            </Array>
          </mxGeometry>
        </mxCell>
        <mxCell id="D5N4CXHXUzBSK73f73w--39" value="" style="curved=1;endArrow=classic;html=1;rounded=0;fontSize=14;fontColor=#FFFFFF;strokeColor=#66CC00;strokeWidth=2;fillColor=#33FF33;entryX=0.5;entryY=1;entryDx=0;entryDy=0;" edge="1" parent="1" target="D5N4CXHXUzBSK73f73w--11">
          <mxGeometry width="50" height="50" relative="1" as="geometry">
            <mxPoint x="560" y="500" as="sourcePoint" />
            <mxPoint x="570" y="450" as="targetPoint" />
            <Array as="points">
              <mxPoint x="580" y="500" />
              <mxPoint x="630" y="440" />
            </Array>
          </mxGeometry>
        </mxCell>
        <mxCell id="D5N4CXHXUzBSK73f73w--40" value="" style="endArrow=classic;html=1;rounded=0;fontSize=14;fontColor=#FFFFFF;strokeColor=#000000;strokeWidth=2;fillColor=#33FF33;entryX=0.5;entryY=1;entryDx=0;entryDy=0;" edge="1" parent="1">
          <mxGeometry width="50" height="50" relative="1" as="geometry">
            <mxPoint x="760" y="680" as="sourcePoint" />
            <mxPoint x="760" y="650" as="targetPoint" />
          </mxGeometry>
        </mxCell>
        <mxCell id="D5N4CXHXUzBSK73f73w--41" value="&lt;font color=&quot;#000000&quot; size=&quot;1&quot;&gt;&lt;b style=&quot;font-size: 16px&quot;&gt;... ...&lt;/b&gt;&lt;/font&gt;" style="text;html=1;strokeColor=none;fillColor=none;align=center;verticalAlign=middle;whiteSpace=wrap;rounded=0;fontSize=14;fontColor=#FFFFFF;" vertex="1" parent="1">
          <mxGeometry x="730" y="620" width="60" height="30" as="geometry" />
        </mxCell>
        <mxCell id="D5N4CXHXUzBSK73f73w--42" value="&lt;font color=&quot;#000000&quot; size=&quot;1&quot;&gt;&lt;b style=&quot;font-size: 16px&quot;&gt;... ...&lt;/b&gt;&lt;/font&gt;" style="text;html=1;strokeColor=none;fillColor=none;align=center;verticalAlign=middle;whiteSpace=wrap;rounded=0;fontSize=14;fontColor=#FFFFFF;" vertex="1" parent="1">
          <mxGeometry x="510" y="320" width="60" height="40" as="geometry" />
        </mxCell>
        <mxCell id="D5N4CXHXUzBSK73f73w--43" value="&lt;font color=&quot;#000000&quot; size=&quot;1&quot;&gt;&lt;b style=&quot;font-size: 16px&quot;&gt;Buffer Pool&lt;/b&gt;&lt;/font&gt;" style="text;html=1;strokeColor=none;fillColor=none;align=center;verticalAlign=middle;whiteSpace=wrap;rounded=0;fontSize=14;fontColor=#FFFFFF;" vertex="1" parent="1">
          <mxGeometry x="480" y="280" width="120" height="40" as="geometry" />
        </mxCell>
        <mxCell id="D5N4CXHXUzBSK73f73w--44" value="" style="curved=1;endArrow=classic;html=1;rounded=0;fontSize=14;fontColor=#FFFFFF;strokeColor=#FF66FF;strokeWidth=2;fillColor=#33FF33;exitX=1;exitY=0.5;exitDx=0;exitDy=0;" edge="1" parent="1" source="D5N4CXHXUzBSK73f73w--27" target="D5N4CXHXUzBSK73f73w--14">
          <mxGeometry width="50" height="50" relative="1" as="geometry">
            <mxPoint x="970" y="530" as="sourcePoint" />
            <mxPoint x="770" y="730" as="targetPoint" />
            <Array as="points">
              <mxPoint x="890" y="730" />
              <mxPoint x="860" y="600" />
            </Array>
          </mxGeometry>
        </mxCell>
        <mxCell id="D5N4CXHXUzBSK73f73w--45" value="" style="curved=1;endArrow=classic;html=1;rounded=0;fontSize=14;fontColor=#FFFFFF;strokeColor=#FF66FF;strokeWidth=2;fillColor=#33FF33;entryX=0.5;entryY=1;entryDx=0;entryDy=0;exitX=1;exitY=0.5;exitDx=0;exitDy=0;" edge="1" parent="1" source="D5N4CXHXUzBSK73f73w--4" target="D5N4CXHXUzBSK73f73w--13">
          <mxGeometry width="50" height="50" relative="1" as="geometry">
            <mxPoint x="840" y="490" as="sourcePoint" />
            <mxPoint x="770" y="450" as="targetPoint" />
            <Array as="points">
              <mxPoint x="890" y="480" />
              <mxPoint x="950" y="440" />
            </Array>
          </mxGeometry>
        </mxCell>
        <mxCell id="D5N4CXHXUzBSK73f73w--46" value="" style="curved=1;endArrow=classic;html=1;rounded=0;fontSize=14;fontColor=#FFFFFF;strokeColor=#FF66FF;strokeWidth=2;fillColor=#33FF33;entryX=0.5;entryY=1;entryDx=0;entryDy=0;exitX=0;exitY=0.5;exitDx=0;exitDy=0;" edge="1" parent="1" source="D5N4CXHXUzBSK73f73w--29" target="D5N4CXHXUzBSK73f73w--11">
          <mxGeometry width="50" height="50" relative="1" as="geometry">
            <mxPoint x="700" y="630" as="sourcePoint" />
            <mxPoint x="690" y="530" as="targetPoint" />
            <Array as="points">
              <mxPoint x="630" y="590" />
            </Array>
          </mxGeometry>
        </mxCell>
      </root>
    </mxGraphModel>
  </diagram>
</mxfile>
